<mxfile host="app.diagrams.net" agent="Mozilla/5.0 (Windows NT 10.0; Win64; x64) AppleWebKit/537.36 (KHTML, like Gecko) Chrome/118.0.0.0 Safari/537.36" version="26.0.11">
  <diagram id="C5RBs43oDa-KdzZeNtuy" name="Page-1">
    <mxGraphModel dx="3304" dy="1330" grid="1" gridSize="10" guides="1" tooltips="1" connect="1" arrows="1" fold="1" page="1" pageScale="1" pageWidth="827" pageHeight="1169" math="0" shadow="0">
      <root>
        <mxCell id="WIyWlLk6GJQsqaUBKTNV-0" />
        <mxCell id="WIyWlLk6GJQsqaUBKTNV-1" parent="WIyWlLk6GJQsqaUBKTNV-0" />
        <mxCell id="VaRAnJZeEG1DX4EoweuF-4" value="" style="edgeStyle=orthogonalEdgeStyle;rounded=0;sketch=1;hachureGap=4;jiggle=2;curveFitting=1;orthogonalLoop=1;jettySize=auto;html=1;fontFamily=Architects Daughter;fontSource=https%3A%2F%2Ffonts.googleapis.com%2Fcss%3Ffamily%3DArchitects%2BDaughter;" edge="1" parent="WIyWlLk6GJQsqaUBKTNV-1" source="VaRAnJZeEG1DX4EoweuF-2" target="VaRAnJZeEG1DX4EoweuF-3">
          <mxGeometry relative="1" as="geometry" />
        </mxCell>
        <mxCell id="VaRAnJZeEG1DX4EoweuF-2" value="审批申请&amp;nbsp;&lt;div&gt;开始&lt;/div&gt;" style="rounded=0;whiteSpace=wrap;html=1;sketch=1;hachureGap=4;jiggle=2;curveFitting=1;fontFamily=Architects Daughter;fontSource=https%3A%2F%2Ffonts.googleapis.com%2Fcss%3Ffamily%3DArchitects%2BDaughter;fillColor=#dae8fc;strokeColor=#6c8ebf;" vertex="1" parent="WIyWlLk6GJQsqaUBKTNV-1">
          <mxGeometry x="340" y="80" width="120" height="60" as="geometry" />
        </mxCell>
        <mxCell id="VaRAnJZeEG1DX4EoweuF-6" value="" style="edgeStyle=orthogonalEdgeStyle;rounded=0;sketch=1;hachureGap=4;jiggle=2;curveFitting=1;orthogonalLoop=1;jettySize=auto;html=1;fontFamily=Architects Daughter;fontSource=https%3A%2F%2Ffonts.googleapis.com%2Fcss%3Ffamily%3DArchitects%2BDaughter;" edge="1" parent="WIyWlLk6GJQsqaUBKTNV-1" source="VaRAnJZeEG1DX4EoweuF-3" target="VaRAnJZeEG1DX4EoweuF-5">
          <mxGeometry relative="1" as="geometry" />
        </mxCell>
        <mxCell id="VaRAnJZeEG1DX4EoweuF-3" value="参数校验" style="rounded=0;whiteSpace=wrap;html=1;sketch=1;hachureGap=4;jiggle=2;curveFitting=1;fontFamily=Architects Daughter;fontSource=https%3A%2F%2Ffonts.googleapis.com%2Fcss%3Ffamily%3DArchitects%2BDaughter;fillColor=#f5f5f5;strokeColor=#666666;fontColor=#333333;" vertex="1" parent="WIyWlLk6GJQsqaUBKTNV-1">
          <mxGeometry x="340" y="220" width="120" height="60" as="geometry" />
        </mxCell>
        <mxCell id="VaRAnJZeEG1DX4EoweuF-8" value="" style="edgeStyle=orthogonalEdgeStyle;rounded=0;sketch=1;hachureGap=4;jiggle=2;curveFitting=1;orthogonalLoop=1;jettySize=auto;html=1;fontFamily=Architects Daughter;fontSource=https%3A%2F%2Ffonts.googleapis.com%2Fcss%3Ffamily%3DArchitects%2BDaughter;" edge="1" parent="WIyWlLk6GJQsqaUBKTNV-1" source="VaRAnJZeEG1DX4EoweuF-5" target="VaRAnJZeEG1DX4EoweuF-7">
          <mxGeometry relative="1" as="geometry" />
        </mxCell>
        <mxCell id="VaRAnJZeEG1DX4EoweuF-5" value="角色使用权限校验" style="rounded=0;whiteSpace=wrap;html=1;sketch=1;hachureGap=4;jiggle=2;curveFitting=1;fontFamily=Architects Daughter;fontSource=https%3A%2F%2Ffonts.googleapis.com%2Fcss%3Ffamily%3DArchitects%2BDaughter;fillColor=#f5f5f5;strokeColor=#666666;fontColor=#333333;" vertex="1" parent="WIyWlLk6GJQsqaUBKTNV-1">
          <mxGeometry x="340" y="360" width="120" height="60" as="geometry" />
        </mxCell>
        <mxCell id="VaRAnJZeEG1DX4EoweuF-10" value="" style="edgeStyle=orthogonalEdgeStyle;rounded=0;sketch=1;hachureGap=4;jiggle=2;curveFitting=1;orthogonalLoop=1;jettySize=auto;html=1;fontFamily=Architects Daughter;fontSource=https%3A%2F%2Ffonts.googleapis.com%2Fcss%3Ffamily%3DArchitects%2BDaughter;" edge="1" parent="WIyWlLk6GJQsqaUBKTNV-1" source="VaRAnJZeEG1DX4EoweuF-7" target="VaRAnJZeEG1DX4EoweuF-9">
          <mxGeometry relative="1" as="geometry" />
        </mxCell>
        <mxCell id="VaRAnJZeEG1DX4EoweuF-7" value="审批人所在组织是否具有权限审批校验" style="rounded=0;whiteSpace=wrap;html=1;sketch=1;hachureGap=4;jiggle=2;curveFitting=1;fontFamily=Architects Daughter;fontSource=https%3A%2F%2Ffonts.googleapis.com%2Fcss%3Ffamily%3DArchitects%2BDaughter;fillColor=#f5f5f5;strokeColor=#666666;fontColor=#333333;" vertex="1" parent="WIyWlLk6GJQsqaUBKTNV-1">
          <mxGeometry x="340" y="500" width="120" height="60" as="geometry" />
        </mxCell>
        <mxCell id="VaRAnJZeEG1DX4EoweuF-12" value="" style="edgeStyle=orthogonalEdgeStyle;rounded=0;sketch=1;hachureGap=4;jiggle=2;curveFitting=1;orthogonalLoop=1;jettySize=auto;html=1;fontFamily=Architects Daughter;fontSource=https%3A%2F%2Ffonts.googleapis.com%2Fcss%3Ffamily%3DArchitects%2BDaughter;" edge="1" parent="WIyWlLk6GJQsqaUBKTNV-1" source="VaRAnJZeEG1DX4EoweuF-9" target="VaRAnJZeEG1DX4EoweuF-11">
          <mxGeometry relative="1" as="geometry" />
        </mxCell>
        <mxCell id="VaRAnJZeEG1DX4EoweuF-13" value="否" style="edgeLabel;html=1;align=center;verticalAlign=middle;resizable=0;points=[];sketch=1;hachureGap=4;jiggle=2;curveFitting=1;fontFamily=Architects Daughter;fontSource=https%3A%2F%2Ffonts.googleapis.com%2Fcss%3Ffamily%3DArchitects%2BDaughter;" vertex="1" connectable="0" parent="VaRAnJZeEG1DX4EoweuF-12">
          <mxGeometry x="-0.0381" y="-3" relative="1" as="geometry">
            <mxPoint as="offset" />
          </mxGeometry>
        </mxCell>
        <mxCell id="VaRAnJZeEG1DX4EoweuF-106" style="edgeStyle=orthogonalEdgeStyle;rounded=0;sketch=1;hachureGap=4;jiggle=2;curveFitting=1;orthogonalLoop=1;jettySize=auto;html=1;exitX=1;exitY=0.5;exitDx=0;exitDy=0;entryX=0.5;entryY=0;entryDx=0;entryDy=0;fontFamily=Architects Daughter;fontSource=https%3A%2F%2Ffonts.googleapis.com%2Fcss%3Ffamily%3DArchitects%2BDaughter;" edge="1" parent="WIyWlLk6GJQsqaUBKTNV-1" source="VaRAnJZeEG1DX4EoweuF-9" target="VaRAnJZeEG1DX4EoweuF-103">
          <mxGeometry relative="1" as="geometry" />
        </mxCell>
        <mxCell id="VaRAnJZeEG1DX4EoweuF-108" value="是" style="edgeLabel;html=1;align=center;verticalAlign=middle;resizable=0;points=[];sketch=1;hachureGap=4;jiggle=2;curveFitting=1;fontFamily=Architects Daughter;fontSource=https%3A%2F%2Ffonts.googleapis.com%2Fcss%3Ffamily%3DArchitects%2BDaughter;" vertex="1" connectable="0" parent="VaRAnJZeEG1DX4EoweuF-106">
          <mxGeometry x="0.0957" y="-3" relative="1" as="geometry">
            <mxPoint as="offset" />
          </mxGeometry>
        </mxCell>
        <mxCell id="VaRAnJZeEG1DX4EoweuF-9" value="是否设置通过" style="rhombus;whiteSpace=wrap;html=1;fontFamily=Architects Daughter;fillColor=#ffe6cc;strokeColor=#d79b00;rounded=0;sketch=1;hachureGap=4;jiggle=2;curveFitting=1;fontSource=https%3A%2F%2Ffonts.googleapis.com%2Fcss%3Ffamily%3DArchitects%2BDaughter;" vertex="1" parent="WIyWlLk6GJQsqaUBKTNV-1">
          <mxGeometry x="360" y="630" width="80" height="80" as="geometry" />
        </mxCell>
        <mxCell id="VaRAnJZeEG1DX4EoweuF-47" value="" style="edgeStyle=orthogonalEdgeStyle;rounded=0;sketch=1;hachureGap=4;jiggle=2;curveFitting=1;orthogonalLoop=1;jettySize=auto;html=1;fontFamily=Architects Daughter;fontSource=https%3A%2F%2Ffonts.googleapis.com%2Fcss%3Ffamily%3DArchitects%2BDaughter;" edge="1" parent="WIyWlLk6GJQsqaUBKTNV-1" source="VaRAnJZeEG1DX4EoweuF-11" target="VaRAnJZeEG1DX4EoweuF-46">
          <mxGeometry relative="1" as="geometry" />
        </mxCell>
        <mxCell id="VaRAnJZeEG1DX4EoweuF-11" value="修改申请信息状态，审批信息状态" style="whiteSpace=wrap;html=1;fontFamily=Architects Daughter;fillColor=#f5f5f5;strokeColor=#666666;fontColor=#333333;rounded=0;sketch=1;hachureGap=4;jiggle=2;curveFitting=1;fontSource=https%3A%2F%2Ffonts.googleapis.com%2Fcss%3Ffamily%3DArchitects%2BDaughter;" vertex="1" parent="WIyWlLk6GJQsqaUBKTNV-1">
          <mxGeometry x="-70" y="850" width="120" height="60" as="geometry" />
        </mxCell>
        <mxCell id="VaRAnJZeEG1DX4EoweuF-20" style="edgeStyle=orthogonalEdgeStyle;rounded=0;sketch=1;hachureGap=4;jiggle=2;curveFitting=1;orthogonalLoop=1;jettySize=auto;html=1;fontFamily=Architects Daughter;fontSource=https%3A%2F%2Ffonts.googleapis.com%2Fcss%3Ffamily%3DArchitects%2BDaughter;" edge="1" parent="WIyWlLk6GJQsqaUBKTNV-1" source="VaRAnJZeEG1DX4EoweuF-17">
          <mxGeometry relative="1" as="geometry">
            <mxPoint x="1046" y="1040" as="targetPoint" />
          </mxGeometry>
        </mxCell>
        <mxCell id="VaRAnJZeEG1DX4EoweuF-22" value="是" style="edgeLabel;html=1;align=center;verticalAlign=middle;resizable=0;points=[];sketch=1;hachureGap=4;jiggle=2;curveFitting=1;fontFamily=Architects Daughter;fontSource=https%3A%2F%2Ffonts.googleapis.com%2Fcss%3Ffamily%3DArchitects%2BDaughter;" vertex="1" connectable="0" parent="VaRAnJZeEG1DX4EoweuF-20">
          <mxGeometry x="-0.5508" relative="1" as="geometry">
            <mxPoint as="offset" />
          </mxGeometry>
        </mxCell>
        <mxCell id="VaRAnJZeEG1DX4EoweuF-95" style="edgeStyle=orthogonalEdgeStyle;rounded=0;sketch=1;hachureGap=4;jiggle=2;curveFitting=1;orthogonalLoop=1;jettySize=auto;html=1;exitX=0;exitY=0.5;exitDx=0;exitDy=0;entryX=0.5;entryY=0;entryDx=0;entryDy=0;fontFamily=Architects Daughter;fontSource=https%3A%2F%2Ffonts.googleapis.com%2Fcss%3Ffamily%3DArchitects%2BDaughter;" edge="1" parent="WIyWlLk6GJQsqaUBKTNV-1" source="VaRAnJZeEG1DX4EoweuF-17" target="VaRAnJZeEG1DX4EoweuF-21">
          <mxGeometry relative="1" as="geometry" />
        </mxCell>
        <mxCell id="VaRAnJZeEG1DX4EoweuF-17" value="所使用时间段是否已经存在用户审批通过" style="rhombus;whiteSpace=wrap;html=1;fontFamily=Architects Daughter;fillColor=#ffe6cc;strokeColor=#d79b00;rounded=0;sketch=1;hachureGap=4;jiggle=2;curveFitting=1;fontSource=https%3A%2F%2Ffonts.googleapis.com%2Fcss%3Ffamily%3DArchitects%2BDaughter;" vertex="1" parent="WIyWlLk6GJQsqaUBKTNV-1">
          <mxGeometry x="766" y="940" width="140" height="80" as="geometry" />
        </mxCell>
        <mxCell id="VaRAnJZeEG1DX4EoweuF-120" style="edgeStyle=orthogonalEdgeStyle;rounded=0;sketch=1;hachureGap=4;jiggle=2;curveFitting=1;orthogonalLoop=1;jettySize=auto;html=1;entryX=0;entryY=0.5;entryDx=0;entryDy=0;fontFamily=Architects Daughter;fontSource=https%3A%2F%2Ffonts.googleapis.com%2Fcss%3Ffamily%3DArchitects%2BDaughter;" edge="1" parent="WIyWlLk6GJQsqaUBKTNV-1" source="VaRAnJZeEG1DX4EoweuF-21" target="VaRAnJZeEG1DX4EoweuF-114">
          <mxGeometry relative="1" as="geometry" />
        </mxCell>
        <mxCell id="VaRAnJZeEG1DX4EoweuF-21" value="校验成功" style="whiteSpace=wrap;html=1;fontFamily=Architects Daughter;fillColor=#f5f5f5;strokeColor=#666666;fontColor=#333333;rounded=0;sketch=1;hachureGap=4;jiggle=2;curveFitting=1;fontSource=https%3A%2F%2Ffonts.googleapis.com%2Fcss%3Ffamily%3DArchitects%2BDaughter;" vertex="1" parent="WIyWlLk6GJQsqaUBKTNV-1">
          <mxGeometry x="540" y="1060" width="120" height="80" as="geometry" />
        </mxCell>
        <mxCell id="VaRAnJZeEG1DX4EoweuF-27" value="" style="edgeStyle=orthogonalEdgeStyle;rounded=0;sketch=1;hachureGap=4;jiggle=2;curveFitting=1;orthogonalLoop=1;jettySize=auto;html=1;fontFamily=Architects Daughter;fontSource=https%3A%2F%2Ffonts.googleapis.com%2Fcss%3Ffamily%3DArchitects%2BDaughter;" edge="1" parent="WIyWlLk6GJQsqaUBKTNV-1" source="VaRAnJZeEG1DX4EoweuF-23" target="VaRAnJZeEG1DX4EoweuF-26">
          <mxGeometry relative="1" as="geometry" />
        </mxCell>
        <mxCell id="VaRAnJZeEG1DX4EoweuF-28" value="否" style="edgeLabel;html=1;align=center;verticalAlign=middle;resizable=0;points=[];sketch=1;hachureGap=4;jiggle=2;curveFitting=1;fontFamily=Architects Daughter;fontSource=https%3A%2F%2Ffonts.googleapis.com%2Fcss%3Ffamily%3DArchitects%2BDaughter;" vertex="1" connectable="0" parent="VaRAnJZeEG1DX4EoweuF-27">
          <mxGeometry x="-0.5086" y="-3" relative="1" as="geometry">
            <mxPoint as="offset" />
          </mxGeometry>
        </mxCell>
        <mxCell id="VaRAnJZeEG1DX4EoweuF-33" value="" style="edgeStyle=orthogonalEdgeStyle;rounded=0;sketch=1;hachureGap=4;jiggle=2;curveFitting=1;orthogonalLoop=1;jettySize=auto;html=1;fontFamily=Architects Daughter;fontSource=https%3A%2F%2Ffonts.googleapis.com%2Fcss%3Ffamily%3DArchitects%2BDaughter;" edge="1" parent="WIyWlLk6GJQsqaUBKTNV-1" source="VaRAnJZeEG1DX4EoweuF-23">
          <mxGeometry relative="1" as="geometry">
            <mxPoint x="826" y="1190" as="targetPoint" />
          </mxGeometry>
        </mxCell>
        <mxCell id="VaRAnJZeEG1DX4EoweuF-34" value="是" style="edgeLabel;html=1;align=center;verticalAlign=middle;resizable=0;points=[];sketch=1;hachureGap=4;jiggle=2;curveFitting=1;fontFamily=Architects Daughter;fontSource=https%3A%2F%2Ffonts.googleapis.com%2Fcss%3Ffamily%3DArchitects%2BDaughter;" vertex="1" connectable="0" parent="VaRAnJZeEG1DX4EoweuF-33">
          <mxGeometry x="-0.4752" y="4" relative="1" as="geometry">
            <mxPoint as="offset" />
          </mxGeometry>
        </mxCell>
        <mxCell id="VaRAnJZeEG1DX4EoweuF-23" value="已审批成功对应模板是否设置允许冲突" style="rhombus;whiteSpace=wrap;html=1;fontFamily=Architects Daughter;fillColor=#ffe6cc;strokeColor=#d79b00;rounded=0;sketch=1;hachureGap=4;jiggle=2;curveFitting=1;fontSource=https%3A%2F%2Ffonts.googleapis.com%2Fcss%3Ffamily%3DArchitects%2BDaughter;" vertex="1" parent="WIyWlLk6GJQsqaUBKTNV-1">
          <mxGeometry x="976" y="1040" width="140" height="100" as="geometry" />
        </mxCell>
        <mxCell id="VaRAnJZeEG1DX4EoweuF-49" value="" style="edgeStyle=orthogonalEdgeStyle;rounded=0;sketch=1;hachureGap=4;jiggle=2;curveFitting=1;orthogonalLoop=1;jettySize=auto;html=1;fontFamily=Architects Daughter;fontSource=https%3A%2F%2Ffonts.googleapis.com%2Fcss%3Ffamily%3DArchitects%2BDaughter;" edge="1" parent="WIyWlLk6GJQsqaUBKTNV-1" source="VaRAnJZeEG1DX4EoweuF-26" target="VaRAnJZeEG1DX4EoweuF-48">
          <mxGeometry relative="1" as="geometry" />
        </mxCell>
        <mxCell id="VaRAnJZeEG1DX4EoweuF-26" value="返回失败" style="whiteSpace=wrap;html=1;fontFamily=Architects Daughter;fillColor=#f5f5f5;strokeColor=#666666;fontColor=#333333;rounded=0;sketch=1;hachureGap=4;jiggle=2;curveFitting=1;fontSource=https%3A%2F%2Ffonts.googleapis.com%2Fcss%3Ffamily%3DArchitects%2BDaughter;" vertex="1" parent="WIyWlLk6GJQsqaUBKTNV-1">
          <mxGeometry x="1176" y="1210" width="120" height="60" as="geometry" />
        </mxCell>
        <mxCell id="VaRAnJZeEG1DX4EoweuF-36" style="edgeStyle=orthogonalEdgeStyle;rounded=0;sketch=1;hachureGap=4;jiggle=2;curveFitting=1;orthogonalLoop=1;jettySize=auto;html=1;entryX=0;entryY=0.5;entryDx=0;entryDy=0;fontFamily=Architects Daughter;fontSource=https%3A%2F%2Ffonts.googleapis.com%2Fcss%3Ffamily%3DArchitects%2BDaughter;" edge="1" parent="WIyWlLk6GJQsqaUBKTNV-1" source="VaRAnJZeEG1DX4EoweuF-35" target="VaRAnJZeEG1DX4EoweuF-26">
          <mxGeometry relative="1" as="geometry" />
        </mxCell>
        <mxCell id="VaRAnJZeEG1DX4EoweuF-37" value="否" style="edgeLabel;html=1;align=center;verticalAlign=middle;resizable=0;points=[];sketch=1;hachureGap=4;jiggle=2;curveFitting=1;fontFamily=Architects Daughter;fontSource=https%3A%2F%2Ffonts.googleapis.com%2Fcss%3Ffamily%3DArchitects%2BDaughter;" vertex="1" connectable="0" parent="VaRAnJZeEG1DX4EoweuF-36">
          <mxGeometry x="0.0029" y="1" relative="1" as="geometry">
            <mxPoint as="offset" />
          </mxGeometry>
        </mxCell>
        <mxCell id="VaRAnJZeEG1DX4EoweuF-110" style="edgeStyle=orthogonalEdgeStyle;rounded=0;sketch=1;hachureGap=4;jiggle=2;curveFitting=1;orthogonalLoop=1;jettySize=auto;html=1;entryX=0.5;entryY=0;entryDx=0;entryDy=0;fontFamily=Architects Daughter;fontSource=https%3A%2F%2Ffonts.googleapis.com%2Fcss%3Ffamily%3DArchitects%2BDaughter;" edge="1" parent="WIyWlLk6GJQsqaUBKTNV-1" source="VaRAnJZeEG1DX4EoweuF-35" target="VaRAnJZeEG1DX4EoweuF-54">
          <mxGeometry relative="1" as="geometry" />
        </mxCell>
        <mxCell id="VaRAnJZeEG1DX4EoweuF-111" value="是" style="edgeLabel;html=1;align=center;verticalAlign=middle;resizable=0;points=[];sketch=1;hachureGap=4;jiggle=2;curveFitting=1;fontFamily=Architects Daughter;fontSource=https%3A%2F%2Ffonts.googleapis.com%2Fcss%3Ffamily%3DArchitects%2BDaughter;" vertex="1" connectable="0" parent="VaRAnJZeEG1DX4EoweuF-110">
          <mxGeometry x="-0.0646" y="-4" relative="1" as="geometry">
            <mxPoint y="1" as="offset" />
          </mxGeometry>
        </mxCell>
        <mxCell id="VaRAnJZeEG1DX4EoweuF-35" value="审批申请时间是否是审批成功的申请时间的子集" style="rhombus;whiteSpace=wrap;html=1;fontFamily=Architects Daughter;fillColor=#ffe6cc;strokeColor=#d79b00;rounded=0;sketch=1;hachureGap=4;jiggle=2;curveFitting=1;fontSource=https%3A%2F%2Ffonts.googleapis.com%2Fcss%3Ffamily%3DArchitects%2BDaughter;" vertex="1" parent="WIyWlLk6GJQsqaUBKTNV-1">
          <mxGeometry x="756" y="1195" width="140" height="90" as="geometry" />
        </mxCell>
        <mxCell id="VaRAnJZeEG1DX4EoweuF-46" value="结束" style="whiteSpace=wrap;html=1;fontFamily=Architects Daughter;fillColor=#f8cecc;strokeColor=#b85450;rounded=0;sketch=1;hachureGap=4;jiggle=2;curveFitting=1;fontSource=https%3A%2F%2Ffonts.googleapis.com%2Fcss%3Ffamily%3DArchitects%2BDaughter;" vertex="1" parent="WIyWlLk6GJQsqaUBKTNV-1">
          <mxGeometry x="-70" y="990" width="120" height="60" as="geometry" />
        </mxCell>
        <mxCell id="VaRAnJZeEG1DX4EoweuF-48" value="结束" style="whiteSpace=wrap;html=1;fontFamily=Architects Daughter;fillColor=#f8cecc;strokeColor=#b85450;rounded=0;sketch=1;hachureGap=4;jiggle=2;curveFitting=1;fontSource=https%3A%2F%2Ffonts.googleapis.com%2Fcss%3Ffamily%3DArchitects%2BDaughter;" vertex="1" parent="WIyWlLk6GJQsqaUBKTNV-1">
          <mxGeometry x="1176" y="1350" width="120" height="60" as="geometry" />
        </mxCell>
        <mxCell id="VaRAnJZeEG1DX4EoweuF-58" value="" style="edgeStyle=orthogonalEdgeStyle;rounded=0;sketch=1;hachureGap=4;jiggle=2;curveFitting=1;orthogonalLoop=1;jettySize=auto;html=1;fontFamily=Architects Daughter;fontSource=https%3A%2F%2Ffonts.googleapis.com%2Fcss%3Ffamily%3DArchitects%2BDaughter;" edge="1" parent="WIyWlLk6GJQsqaUBKTNV-1" source="VaRAnJZeEG1DX4EoweuF-54" target="VaRAnJZeEG1DX4EoweuF-57">
          <mxGeometry relative="1" as="geometry" />
        </mxCell>
        <mxCell id="VaRAnJZeEG1DX4EoweuF-59" value="是" style="edgeLabel;html=1;align=center;verticalAlign=middle;resizable=0;points=[];sketch=1;hachureGap=4;jiggle=2;curveFitting=1;fontFamily=Architects Daughter;fontSource=https%3A%2F%2Ffonts.googleapis.com%2Fcss%3Ffamily%3DArchitects%2BDaughter;" vertex="1" connectable="0" parent="VaRAnJZeEG1DX4EoweuF-58">
          <mxGeometry x="-0.1039" y="-2" relative="1" as="geometry">
            <mxPoint as="offset" />
          </mxGeometry>
        </mxCell>
        <mxCell id="VaRAnJZeEG1DX4EoweuF-63" value="" style="edgeStyle=orthogonalEdgeStyle;rounded=0;sketch=1;hachureGap=4;jiggle=2;curveFitting=1;orthogonalLoop=1;jettySize=auto;html=1;fontFamily=Architects Daughter;fontSource=https%3A%2F%2Ffonts.googleapis.com%2Fcss%3Ffamily%3DArchitects%2BDaughter;" edge="1" parent="WIyWlLk6GJQsqaUBKTNV-1" source="VaRAnJZeEG1DX4EoweuF-54" target="VaRAnJZeEG1DX4EoweuF-62">
          <mxGeometry relative="1" as="geometry" />
        </mxCell>
        <mxCell id="VaRAnJZeEG1DX4EoweuF-64" value="否" style="edgeLabel;html=1;align=center;verticalAlign=middle;resizable=0;points=[];sketch=1;hachureGap=4;jiggle=2;curveFitting=1;fontFamily=Architects Daughter;fontSource=https%3A%2F%2Ffonts.googleapis.com%2Fcss%3Ffamily%3DArchitects%2BDaughter;" vertex="1" connectable="0" parent="VaRAnJZeEG1DX4EoweuF-63">
          <mxGeometry x="-0.1425" y="-6" relative="1" as="geometry">
            <mxPoint as="offset" />
          </mxGeometry>
        </mxCell>
        <mxCell id="VaRAnJZeEG1DX4EoweuF-54" value="开始审批成功记录是否允许冲突" style="rhombus;whiteSpace=wrap;html=1;fontFamily=Architects Daughter;fillColor=#ffe6cc;strokeColor=#d79b00;rounded=0;sketch=1;hachureGap=4;jiggle=2;curveFitting=1;fontSource=https%3A%2F%2Ffonts.googleapis.com%2Fcss%3Ffamily%3DArchitects%2BDaughter;" vertex="1" parent="WIyWlLk6GJQsqaUBKTNV-1">
          <mxGeometry x="786" y="1570" width="80" height="80" as="geometry" />
        </mxCell>
        <mxCell id="VaRAnJZeEG1DX4EoweuF-67" style="edgeStyle=orthogonalEdgeStyle;rounded=0;sketch=1;hachureGap=4;jiggle=2;curveFitting=1;orthogonalLoop=1;jettySize=auto;html=1;entryX=1;entryY=0.5;entryDx=0;entryDy=0;fontFamily=Architects Daughter;fontSource=https%3A%2F%2Ffonts.googleapis.com%2Fcss%3Ffamily%3DArchitects%2BDaughter;" edge="1" parent="WIyWlLk6GJQsqaUBKTNV-1" source="VaRAnJZeEG1DX4EoweuF-57" target="VaRAnJZeEG1DX4EoweuF-62">
          <mxGeometry relative="1" as="geometry" />
        </mxCell>
        <mxCell id="VaRAnJZeEG1DX4EoweuF-57" value="将原先申请通过数据的审批组织列表恢复" style="whiteSpace=wrap;html=1;fontFamily=Architects Daughter;fillColor=#f5f5f5;strokeColor=#666666;rounded=0;sketch=1;hachureGap=4;jiggle=2;curveFitting=1;fontSource=https%3A%2F%2Ffonts.googleapis.com%2Fcss%3Ffamily%3DArchitects%2BDaughter;fontColor=#333333;" vertex="1" parent="WIyWlLk6GJQsqaUBKTNV-1">
          <mxGeometry x="1030" y="1694" width="120" height="60" as="geometry" />
        </mxCell>
        <mxCell id="VaRAnJZeEG1DX4EoweuF-71" value="" style="edgeStyle=orthogonalEdgeStyle;rounded=0;sketch=1;hachureGap=4;jiggle=2;curveFitting=1;orthogonalLoop=1;jettySize=auto;html=1;fontFamily=Architects Daughter;fontSource=https%3A%2F%2Ffonts.googleapis.com%2Fcss%3Ffamily%3DArchitects%2BDaughter;" edge="1" parent="WIyWlLk6GJQsqaUBKTNV-1" source="VaRAnJZeEG1DX4EoweuF-62" target="VaRAnJZeEG1DX4EoweuF-70">
          <mxGeometry relative="1" as="geometry" />
        </mxCell>
        <mxCell id="VaRAnJZeEG1DX4EoweuF-62" value="将开始审批通过冲突记录设置为已失效" style="whiteSpace=wrap;html=1;fontFamily=Architects Daughter;fillColor=#f5f5f5;strokeColor=#666666;rounded=0;sketch=1;hachureGap=4;jiggle=2;curveFitting=1;fontSource=https%3A%2F%2Ffonts.googleapis.com%2Fcss%3Ffamily%3DArchitects%2BDaughter;fontColor=#333333;" vertex="1" parent="WIyWlLk6GJQsqaUBKTNV-1">
          <mxGeometry x="766" y="1830" width="120" height="60" as="geometry" />
        </mxCell>
        <mxCell id="VaRAnJZeEG1DX4EoweuF-73" value="" style="edgeStyle=orthogonalEdgeStyle;rounded=0;sketch=1;hachureGap=4;jiggle=2;curveFitting=1;orthogonalLoop=1;jettySize=auto;html=1;fontFamily=Architects Daughter;fontSource=https%3A%2F%2Ffonts.googleapis.com%2Fcss%3Ffamily%3DArchitects%2BDaughter;" edge="1" parent="WIyWlLk6GJQsqaUBKTNV-1" source="VaRAnJZeEG1DX4EoweuF-70" target="VaRAnJZeEG1DX4EoweuF-72">
          <mxGeometry relative="1" as="geometry" />
        </mxCell>
        <mxCell id="VaRAnJZeEG1DX4EoweuF-74" value="是" style="edgeLabel;html=1;align=center;verticalAlign=middle;resizable=0;points=[];sketch=1;hachureGap=4;jiggle=2;curveFitting=1;fontFamily=Architects Daughter;fontSource=https%3A%2F%2Ffonts.googleapis.com%2Fcss%3Ffamily%3DArchitects%2BDaughter;" vertex="1" connectable="0" parent="VaRAnJZeEG1DX4EoweuF-73">
          <mxGeometry x="-0.3263" relative="1" as="geometry">
            <mxPoint as="offset" />
          </mxGeometry>
        </mxCell>
        <mxCell id="VaRAnJZeEG1DX4EoweuF-70" value="当前是否正在前一个审批通过使用时间范围内" style="rhombus;whiteSpace=wrap;html=1;fontFamily=Architects Daughter;fillColor=#ffe6cc;strokeColor=#d79b00;rounded=0;sketch=1;hachureGap=4;jiggle=2;curveFitting=1;fontSource=https%3A%2F%2Ffonts.googleapis.com%2Fcss%3Ffamily%3DArchitects%2BDaughter;" vertex="1" parent="WIyWlLk6GJQsqaUBKTNV-1">
          <mxGeometry x="766" y="2070" width="120" height="90" as="geometry" />
        </mxCell>
        <mxCell id="VaRAnJZeEG1DX4EoweuF-87" style="edgeStyle=orthogonalEdgeStyle;rounded=0;sketch=1;hachureGap=4;jiggle=2;curveFitting=1;orthogonalLoop=1;jettySize=auto;html=1;exitX=1;exitY=0.5;exitDx=0;exitDy=0;entryX=0;entryY=0.5;entryDx=0;entryDy=0;fontFamily=Architects Daughter;fontSource=https%3A%2F%2Ffonts.googleapis.com%2Fcss%3Ffamily%3DArchitects%2BDaughter;" edge="1" parent="WIyWlLk6GJQsqaUBKTNV-1" source="VaRAnJZeEG1DX4EoweuF-72" target="VaRAnJZeEG1DX4EoweuF-83">
          <mxGeometry relative="1" as="geometry" />
        </mxCell>
        <mxCell id="VaRAnJZeEG1DX4EoweuF-115" value="" style="edgeStyle=orthogonalEdgeStyle;rounded=0;sketch=1;hachureGap=4;jiggle=2;curveFitting=1;orthogonalLoop=1;jettySize=auto;html=1;fontFamily=Architects Daughter;fontSource=https%3A%2F%2Ffonts.googleapis.com%2Fcss%3Ffamily%3DArchitects%2BDaughter;" edge="1" parent="WIyWlLk6GJQsqaUBKTNV-1" source="VaRAnJZeEG1DX4EoweuF-72" target="VaRAnJZeEG1DX4EoweuF-114">
          <mxGeometry relative="1" as="geometry" />
        </mxCell>
        <mxCell id="VaRAnJZeEG1DX4EoweuF-72" value="加入到定时任务队列中" style="whiteSpace=wrap;html=1;fontFamily=Architects Daughter;fillColor=#f5f5f5;strokeColor=#666666;rounded=0;sketch=1;hachureGap=4;jiggle=2;curveFitting=1;fontSource=https%3A%2F%2Ffonts.googleapis.com%2Fcss%3Ffamily%3DArchitects%2BDaughter;fontColor=#333333;" vertex="1" parent="WIyWlLk6GJQsqaUBKTNV-1">
          <mxGeometry x="766" y="2360" width="120" height="60" as="geometry" />
        </mxCell>
        <mxCell id="VaRAnJZeEG1DX4EoweuF-78" value="" style="edgeStyle=orthogonalEdgeStyle;rounded=0;sketch=1;hachureGap=4;jiggle=2;curveFitting=1;orthogonalLoop=1;jettySize=auto;html=1;fontFamily=Architects Daughter;fontSource=https%3A%2F%2Ffonts.googleapis.com%2Fcss%3Ffamily%3DArchitects%2BDaughter;" edge="1" parent="WIyWlLk6GJQsqaUBKTNV-1" source="VaRAnJZeEG1DX4EoweuF-75" target="VaRAnJZeEG1DX4EoweuF-77">
          <mxGeometry relative="1" as="geometry" />
        </mxCell>
        <mxCell id="VaRAnJZeEG1DX4EoweuF-79" value="是" style="edgeLabel;html=1;align=center;verticalAlign=middle;resizable=0;points=[];sketch=1;hachureGap=4;jiggle=2;curveFitting=1;fontFamily=Architects Daughter;fontSource=https%3A%2F%2Ffonts.googleapis.com%2Fcss%3Ffamily%3DArchitects%2BDaughter;" vertex="1" connectable="0" parent="VaRAnJZeEG1DX4EoweuF-78">
          <mxGeometry x="-0.3111" y="-3" relative="1" as="geometry">
            <mxPoint as="offset" />
          </mxGeometry>
        </mxCell>
        <mxCell id="VaRAnJZeEG1DX4EoweuF-75" value="当前审批通过模板是否设置允许冲突" style="rhombus;whiteSpace=wrap;html=1;fontFamily=Architects Daughter;fillColor=#ffe6cc;strokeColor=#d79b00;rounded=0;sketch=1;hachureGap=4;jiggle=2;curveFitting=1;fontSource=https%3A%2F%2Ffonts.googleapis.com%2Fcss%3Ffamily%3DArchitects%2BDaughter;" vertex="1" parent="WIyWlLk6GJQsqaUBKTNV-1">
          <mxGeometry x="756" y="2600" width="140" height="80" as="geometry" />
        </mxCell>
        <mxCell id="VaRAnJZeEG1DX4EoweuF-93" value="" style="edgeStyle=orthogonalEdgeStyle;rounded=0;sketch=1;hachureGap=4;jiggle=2;curveFitting=1;orthogonalLoop=1;jettySize=auto;html=1;fontFamily=Architects Daughter;fontSource=https%3A%2F%2Ffonts.googleapis.com%2Fcss%3Ffamily%3DArchitects%2BDaughter;" edge="1" parent="WIyWlLk6GJQsqaUBKTNV-1" source="VaRAnJZeEG1DX4EoweuF-77" target="VaRAnJZeEG1DX4EoweuF-92">
          <mxGeometry relative="1" as="geometry" />
        </mxCell>
        <mxCell id="VaRAnJZeEG1DX4EoweuF-77" value="修改申请通过待审批的审批组织id为当前审批通过模板设置组织id列表" style="whiteSpace=wrap;html=1;fontFamily=Architects Daughter;fillColor=#f5f5f5;strokeColor=#666666;fontColor=#333333;rounded=0;sketch=1;hachureGap=4;jiggle=2;curveFitting=1;fontSource=https%3A%2F%2Ffonts.googleapis.com%2Fcss%3Ffamily%3DArchitects%2BDaughter;" vertex="1" parent="WIyWlLk6GJQsqaUBKTNV-1">
          <mxGeometry x="766" y="2800" width="120" height="60" as="geometry" />
        </mxCell>
        <mxCell id="VaRAnJZeEG1DX4EoweuF-84" value="" style="edgeStyle=orthogonalEdgeStyle;rounded=0;sketch=1;hachureGap=4;jiggle=2;curveFitting=1;orthogonalLoop=1;jettySize=auto;html=1;fontFamily=Architects Daughter;fontSource=https%3A%2F%2Ffonts.googleapis.com%2Fcss%3Ffamily%3DArchitects%2BDaughter;" edge="1" parent="WIyWlLk6GJQsqaUBKTNV-1" source="VaRAnJZeEG1DX4EoweuF-81" target="VaRAnJZeEG1DX4EoweuF-83">
          <mxGeometry relative="1" as="geometry" />
        </mxCell>
        <mxCell id="VaRAnJZeEG1DX4EoweuF-81" value="定时任务扫描即将完成前90s的审批成功数据" style="rounded=1;whiteSpace=wrap;html=1;sketch=1;hachureGap=4;jiggle=2;curveFitting=1;fontFamily=Architects Daughter;fontSource=https%3A%2F%2Ffonts.googleapis.com%2Fcss%3Ffamily%3DArchitects%2BDaughter;fillColor=#f5f5f5;fontColor=#333333;strokeColor=#666666;" vertex="1" parent="WIyWlLk6GJQsqaUBKTNV-1">
          <mxGeometry x="1296" y="2120" width="120" height="60" as="geometry" />
        </mxCell>
        <mxCell id="VaRAnJZeEG1DX4EoweuF-86" value="" style="edgeStyle=orthogonalEdgeStyle;rounded=0;sketch=1;hachureGap=4;jiggle=2;curveFitting=1;orthogonalLoop=1;jettySize=auto;html=1;fontFamily=Architects Daughter;fontSource=https%3A%2F%2Ffonts.googleapis.com%2Fcss%3Ffamily%3DArchitects%2BDaughter;" edge="1" parent="WIyWlLk6GJQsqaUBKTNV-1" source="VaRAnJZeEG1DX4EoweuF-83" target="VaRAnJZeEG1DX4EoweuF-85">
          <mxGeometry relative="1" as="geometry" />
        </mxCell>
        <mxCell id="VaRAnJZeEG1DX4EoweuF-83" value="将数据加入到定时任务中" style="whiteSpace=wrap;html=1;fontFamily=Architects Daughter;fillColor=#f5f5f5;strokeColor=#666666;fontColor=#333333;rounded=1;sketch=1;hachureGap=4;jiggle=2;curveFitting=1;fontSource=https%3A%2F%2Ffonts.googleapis.com%2Fcss%3Ffamily%3DArchitects%2BDaughter;" vertex="1" parent="WIyWlLk6GJQsqaUBKTNV-1">
          <mxGeometry x="1296" y="2260" width="120" height="60" as="geometry" />
        </mxCell>
        <mxCell id="VaRAnJZeEG1DX4EoweuF-89" value="" style="edgeStyle=orthogonalEdgeStyle;rounded=0;sketch=1;hachureGap=4;jiggle=2;curveFitting=1;orthogonalLoop=1;jettySize=auto;html=1;fontFamily=Architects Daughter;fontSource=https%3A%2F%2Ffonts.googleapis.com%2Fcss%3Ffamily%3DArchitects%2BDaughter;" edge="1" parent="WIyWlLk6GJQsqaUBKTNV-1" source="VaRAnJZeEG1DX4EoweuF-85" target="VaRAnJZeEG1DX4EoweuF-88">
          <mxGeometry relative="1" as="geometry" />
        </mxCell>
        <mxCell id="VaRAnJZeEG1DX4EoweuF-85" value="发送ws提示用户控制权被抢夺或即将到期" style="whiteSpace=wrap;html=1;fontFamily=Architects Daughter;fillColor=#f5f5f5;strokeColor=#666666;fontColor=#333333;rounded=1;sketch=1;hachureGap=4;jiggle=2;curveFitting=1;fontSource=https%3A%2F%2Ffonts.googleapis.com%2Fcss%3Ffamily%3DArchitects%2BDaughter;" vertex="1" parent="WIyWlLk6GJQsqaUBKTNV-1">
          <mxGeometry x="1296" y="2400" width="120" height="60" as="geometry" />
        </mxCell>
        <mxCell id="VaRAnJZeEG1DX4EoweuF-91" value="" style="edgeStyle=orthogonalEdgeStyle;rounded=0;sketch=1;hachureGap=4;jiggle=2;curveFitting=1;orthogonalLoop=1;jettySize=auto;html=1;fontFamily=Architects Daughter;fontSource=https%3A%2F%2Ffonts.googleapis.com%2Fcss%3Ffamily%3DArchitects%2BDaughter;" edge="1" parent="WIyWlLk6GJQsqaUBKTNV-1" source="VaRAnJZeEG1DX4EoweuF-88" target="VaRAnJZeEG1DX4EoweuF-90">
          <mxGeometry relative="1" as="geometry" />
        </mxCell>
        <mxCell id="VaRAnJZeEG1DX4EoweuF-88" value="是否是申请时间到期且未通过后续的连续工作时间" style="rhombus;whiteSpace=wrap;html=1;fontFamily=Architects Daughter;fillColor=#ffe6cc;strokeColor=#d79b00;rounded=1;sketch=1;hachureGap=4;jiggle=2;curveFitting=1;fontSource=https%3A%2F%2Ffonts.googleapis.com%2Fcss%3Ffamily%3DArchitects%2BDaughter;" vertex="1" parent="WIyWlLk6GJQsqaUBKTNV-1">
          <mxGeometry x="1266" y="2530" width="180" height="80" as="geometry" />
        </mxCell>
        <mxCell id="VaRAnJZeEG1DX4EoweuF-90" value="添加一个5分钟的返航任务" style="whiteSpace=wrap;html=1;fontFamily=Architects Daughter;fillColor=#f5f5f5;strokeColor=#666666;rounded=1;sketch=1;hachureGap=4;jiggle=2;curveFitting=1;fontSource=https%3A%2F%2Ffonts.googleapis.com%2Fcss%3Ffamily%3DArchitects%2BDaughter;fontColor=#333333;" vertex="1" parent="WIyWlLk6GJQsqaUBKTNV-1">
          <mxGeometry x="1296" y="2700" width="120" height="60" as="geometry" />
        </mxCell>
        <mxCell id="VaRAnJZeEG1DX4EoweuF-92" value="结束" style="whiteSpace=wrap;html=1;fontFamily=Architects Daughter;fillColor=#f8cecc;strokeColor=#b85450;rounded=0;sketch=1;hachureGap=4;jiggle=2;curveFitting=1;fontSource=https%3A%2F%2Ffonts.googleapis.com%2Fcss%3Ffamily%3DArchitects%2BDaughter;" vertex="1" parent="WIyWlLk6GJQsqaUBKTNV-1">
          <mxGeometry x="766" y="3040" width="120" height="60" as="geometry" />
        </mxCell>
        <mxCell id="VaRAnJZeEG1DX4EoweuF-101" value="" style="shape=waypoint;sketch=1;size=6;pointerEvents=1;points=[];fillColor=#f5f5f5;resizable=0;rotatable=0;perimeter=centerPerimeter;snapToPoint=1;fontFamily=Architects Daughter;strokeColor=#666666;fontColor=#333333;rounded=0;hachureGap=4;jiggle=2;curveFitting=1;fontSource=https%3A%2F%2Ffonts.googleapis.com%2Fcss%3Ffamily%3DArchitects%2BDaughter;" vertex="1" parent="WIyWlLk6GJQsqaUBKTNV-1">
          <mxGeometry x="746" y="2610" width="20" height="20" as="geometry" />
        </mxCell>
        <mxCell id="VaRAnJZeEG1DX4EoweuF-104" style="edgeStyle=orthogonalEdgeStyle;rounded=0;sketch=1;hachureGap=4;jiggle=2;curveFitting=1;orthogonalLoop=1;jettySize=auto;html=1;exitX=0.5;exitY=1;exitDx=0;exitDy=0;entryX=0.5;entryY=0;entryDx=0;entryDy=0;fontFamily=Architects Daughter;fontSource=https%3A%2F%2Ffonts.googleapis.com%2Fcss%3Ffamily%3DArchitects%2BDaughter;" edge="1" parent="WIyWlLk6GJQsqaUBKTNV-1" source="VaRAnJZeEG1DX4EoweuF-103" target="VaRAnJZeEG1DX4EoweuF-17">
          <mxGeometry relative="1" as="geometry" />
        </mxCell>
        <mxCell id="VaRAnJZeEG1DX4EoweuF-103" value="设置申请，审批记录状态为已通过" style="whiteSpace=wrap;html=1;fontFamily=Architects Daughter;fillColor=#f5f5f5;strokeColor=#666666;fontColor=#333333;rounded=0;sketch=1;hachureGap=4;jiggle=2;curveFitting=1;fontSource=https%3A%2F%2Ffonts.googleapis.com%2Fcss%3Ffamily%3DArchitects%2BDaughter;" vertex="1" parent="WIyWlLk6GJQsqaUBKTNV-1">
          <mxGeometry x="776" y="790" width="120" height="60" as="geometry" />
        </mxCell>
        <mxCell id="VaRAnJZeEG1DX4EoweuF-116" style="edgeStyle=orthogonalEdgeStyle;rounded=0;sketch=1;hachureGap=4;jiggle=2;curveFitting=1;orthogonalLoop=1;jettySize=auto;html=1;exitX=0.5;exitY=1;exitDx=0;exitDy=0;entryX=0.5;entryY=0;entryDx=0;entryDy=0;fontFamily=Architects Daughter;fontSource=https%3A%2F%2Ffonts.googleapis.com%2Fcss%3Ffamily%3DArchitects%2BDaughter;" edge="1" parent="WIyWlLk6GJQsqaUBKTNV-1" source="VaRAnJZeEG1DX4EoweuF-114" target="VaRAnJZeEG1DX4EoweuF-75">
          <mxGeometry relative="1" as="geometry" />
        </mxCell>
        <mxCell id="VaRAnJZeEG1DX4EoweuF-114" value="保存审批成功信息" style="whiteSpace=wrap;html=1;fontFamily=Architects Daughter;fillColor=#f5f5f5;strokeColor=#666666;fontColor=#333333;rounded=0;sketch=1;hachureGap=4;jiggle=2;curveFitting=1;fontSource=https%3A%2F%2Ffonts.googleapis.com%2Fcss%3Ffamily%3DArchitects%2BDaughter;" vertex="1" parent="WIyWlLk6GJQsqaUBKTNV-1">
          <mxGeometry x="766" y="2500" width="120" height="60" as="geometry" />
        </mxCell>
        <mxCell id="VaRAnJZeEG1DX4EoweuF-117" value="" style="shape=waypoint;sketch=1;size=6;pointerEvents=1;points=[];fillColor=#f5f5f5;resizable=0;rotatable=0;perimeter=centerPerimeter;snapToPoint=1;fontFamily=Architects Daughter;strokeColor=#666666;fontColor=#333333;rounded=0;hachureGap=4;jiggle=2;curveFitting=1;fontSource=https%3A%2F%2Ffonts.googleapis.com%2Fcss%3Ffamily%3DArchitects%2BDaughter;" vertex="1" parent="WIyWlLk6GJQsqaUBKTNV-1">
          <mxGeometry x="756" y="2530" width="20" height="20" as="geometry" />
        </mxCell>
      </root>
    </mxGraphModel>
  </diagram>
</mxfile>
